<?xml version="1.0" encoding="UTF-8" standalone="no"?>
<svg
   xmlns="http://www.w3.org/2000/svg"
   viewBox="0 0 512 512">
  <path stroke-width="0" stroke="#fff" fill="transparent" d="M0 0h512v512H0z"></path>
  <path
     d="M 261.36133 24.669922 C 256.33591 24.669922 251.12242 25.210282 245.71875 26.291016 C 240.31508 27.37175 234.34313 29.046866 227.80469 31.316406 L 227.80469 56.767578 C 233.31643 53.201157 238.61196 50.525399 243.69141 48.742188 C 248.77085 46.90494 253.49998 45.986328 257.87695 45.986328 C 262.52411 45.986328 266.14451 47.067048 268.73828 49.228516 C 271.33204 51.335946 272.62891 54.281884 272.62891 58.064453 C 272.62891 60.55014 271.89845 63.035796 270.43945 65.521484 C 269.0345 68.007172 266.79298 70.654936 263.71289 73.464844 L 258.52539 78.166016 C 252.7975 83.461612 249.04103 87.838527 247.25781 91.296875 C 245.4746 94.701186 244.58398 98.617819 244.58398 103.04883 L 244.58398 107.02148 L 273.84375 107.02148 L 273.84375 103.37305 C 273.84375 100.9414 274.4121 98.72592 275.54688 96.726562 C 276.68164 94.673168 279.08527 91.971368 282.75977 88.621094 L 287.94727 84.001953 C 293.02671 79.192687 296.62108 74.7077 298.72852 70.546875 C 300.83595 66.332013 301.88867 61.576845 301.88867 56.28125 C 301.88867 45.960242 298.43037 38.125023 291.51367 32.775391 C 284.59698 27.371721 274.54628 24.669922 261.36133 24.669922 z M 244.58398 119.01758 L 244.58398 147.87305 L 273.84375 147.87305 L 273.84375 119.01758 L 244.58398 119.01758 z M 257.92383 171.36328 C 240.57937 171.36328 224.65198 180.27183 212.58594 195.70703 C 200.51888 211.14123 192.74219 232.99765 192.74219 257.31445 C 192.74219 283.11385 201.84592 306.05306 215.30664 321.66406 L 225.32227 333.2793 L 210.36914 336.68945 C 172.80889 345.25303 155.09396 362.76114 144.70508 390.29102 C 135.03722 415.9067 133.09839 451.20255 132.86133 493.24609 L 384.21094 493.24609 C 384.16454 451.03069 383.55872 414.87356 374.64648 388.73242 C 365.07244 360.6494 347.87041 342.92133 307.49219 335.01953 L 292.40625 332.06641 L 302.10352 320.13867 C 314.72468 304.61359 323.10938 282.20611 323.10938 257.31641 C 323.10938 232.99861 315.33071 211.14318 303.26367 195.70898 C 291.19761 180.27478 275.26924 171.36328 257.92578 171.36328 L 257.92383 171.36328 z "
     fill="#000000" />
</svg>
