<?xml version="1.0" encoding="UTF-8" standalone="no"?>
<svg
   xmlns="http://www.w3.org/2000/svg"
   viewBox="0 0 512 512">
  <path
     stroke-width="0"
     stroke="#fff"
     fill="transparent"
     d="M0 0h512v512H0z"/>
  <path
     fill="#000000"
     d="m 147.11865,408.73728 0,-21.97457 -21.97458,0 -21.97458,0 0,-43.94915 0,-43.94916 -21.346729,0 -21.346731,0 0,43.94916 0,43.94915 -22.602422,0 -22.602421,0 0,-65.92373 0,-65.92373 21.974576,0 21.974577,0 0,-21.97458 0,-21.97457 21.974576,0 21.974574,0 0,-21.97458 0,-21.97457 21.97458,0 21.97458,0 0,-21.97458 0,-21.97458 -21.97458,0 -21.97458,0 0,-21.97457 0,-21.974576 22.60243,0 22.60242,0 0,21.974576 0,21.97457 21.97457,0 21.97458,0 0,21.97458 0,21.97458 65.29589,0 65.29588,0 0,-21.97458 0,-21.97458 21.97458,0 21.97457,0 0,-21.97457 0,-21.974576 22.60242,0 22.60242,0 0,21.974576 0,21.97457 -21.97457,0 -21.97458,0 0,21.97458 0,21.97458 21.97458,0 21.97457,0 0,21.97457 0,21.97458 21.97458,0 21.97458,0 0,21.97457 0,21.97458 21.97457,0 21.97458,0 0,65.92373 0,65.92373 -22.60242,0 -22.60242,0 0,-43.94915 0,-43.94916 -21.34673,0 -21.34674,0 0,43.94916 0,43.94915 -21.97457,0 -21.97458,0 0,21.97457 0,21.97458 -44.577,0 -44.57699,0 0,-21.97458 0,-21.97457 43.94915,0 43.94915,0 0,-21.97458 0,-21.97457 -109.24503,0 -109.24504,0 0,21.97457 0,21.97458 43.94915,0 43.94915,0 0,21.97457 0,21.97458 -44.57699,0 -44.577,0 0,-21.97458 z m 43.94915,-175.79661 0,-21.97457 -21.34673,0 -21.34673,0 0,21.97457 0,21.97458 21.34673,0 21.34673,0 0,-21.97458 z m 175.79661,0 0,-21.97457 -21.34673,0 -21.34673,0 0,21.97457 0,21.97458 21.34673,0 21.34673,0 0,-21.97458 z" />
</svg>
