<?xml version="1.0" encoding="UTF-8" standalone="no"?>
<svg
   xmlns:dc="http://purl.org/dc/elements/1.1/"
   xmlns:cc="http://creativecommons.org/ns#"
   xmlns:rdf="http://www.w3.org/1999/02/22-rdf-syntax-ns#"
   xmlns:svg="http://www.w3.org/2000/svg"
   xmlns="http://www.w3.org/2000/svg"
   xmlns:sodipodi="http://sodipodi.sourceforge.net/DTD/sodipodi-0.dtd"
   xmlns:inkscape="http://www.inkscape.org/namespaces/inkscape"
   viewBox="0 0 692 512"
   id="svg2"
   version="1.1"
   inkscape:version="0.91 r13725"
   sodipodi:docname="beer.svg"
   width="692"
   height="512">
  <metadata
     id="metadata10">
    <rdf:RDF>
      <cc:Work
         rdf:about="">
        <dc:format>image/svg+xml</dc:format>
        <dc:type
           rdf:resource="http://purl.org/dc/dcmitype/StillImage" />
        <dc:title></dc:title>
      </cc:Work>
    </rdf:RDF>
  </metadata>
  <defs
     id="defs8" />
  <sodipodi:namedview
     pagecolor="#ffffff"
     bordercolor="#666666"
     borderopacity="1"
     objecttolerance="10"
     gridtolerance="10"
     guidetolerance="10"
     inkscape:pageopacity="0"
     inkscape:pageshadow="2"
     inkscape:window-width="1127"
     inkscape:window-height="884"
     id="namedview6"
     showgrid="false"
     inkscape:zoom="0.921875"
     inkscape:cx="410.1707"
     inkscape:cy="158.55352"
     inkscape:window-x="0"
     inkscape:window-y="0"
     inkscape:window-maximized="0"
     inkscape:current-layer="svg2" />
  <path
     d="m 349.906,19.438 c 18.092,-0.063 35.548,9.82 43.125,28.437 l 0,9.688 11.376,-2.5 c 14.316,-3.17 25.792,-1.15 33.375,3.843 7.585,4.994 12.174,12.898 12.345,25.438 0.13,9.54 -1.93,15.82 -4.813,20 -2.882,4.18 -6.673,6.672 -11.906,8.062 -10.465,2.78 -26.67,-0.357 -41.094,-8.75 l -5.968,-3.47 -5.063,4.658 c -8.405,7.744 -14.51,11.07 -20.56,12.25 -6.052,1.18 -13.046,0.318 -23.44,-2.875 l -9.842,-3.032 -2.063,10.093 c -2.695,13.158 -14.91,23.407 -29.125,23.407 -13.237,0 -23.67,-9.028 -27.313,-21.468 l -2.218,-7.532 -7.783,0.843 c -8.855,0.99 -19.41,-4.045 -25,-10.343 l -6,-6.75 -6.968,5.782 c -18.61,15.487 -35.46,16.96 -47.283,11.468 -11.82,-5.494 -20.18,-18.602 -19.25,-38.782 0.88,-18.827 10.97,-30.448 25.5,-35.812 14.532,-5.364 33.76,-3.61 51.282,8.218 l 7.436,5.032 5.344,-7.25 c 7.038,-9.585 17.09,-15.485 26.72,-17 9.628,-1.516 18.487,0.928 25.374,8.406 l 7.406,8.03 6.78,-8.56 c 10.443,-13.165 25.214,-19.482 39.626,-19.532 z m 186.874,100.53 c 27.42,83.682 39.436,169.102 36.408,256.222 -39.55,17.23 -81.422,18.105 -123.437,18 -2.353,-11.073 -4.555,-22.54 -6.594,-34.22 32.102,1.678 64.094,2.52 94.313,-9.124 2.33,-66.88 -6.917,-121.622 -28,-187.03 -27.318,6.5 -55.01,8.61 -83.25,7.467 0.07,-11.715 0.387,-22.556 1.03,-32.31 37.168,-1.726 73.593,-8.642 109.53,-19 z m -148,2.97 c 6.57,3.29 13.37,5.82 20.19,7.406 -3.092,33.456 -1.947,78.392 2.186,127.094 4.777,56.28 13.866,116.5 26.438,166.718 l -269.844,0 c 9.932,-52.565 18.812,-111.61 23.594,-166.72 3.87,-44.618 5.233,-86.115 2.03,-119.717 10.777,-1.282 22.047,-5.642 32.938,-13.22 7.498,5.988 16.954,10.145 27.25,10.75 7.46,16.247 23.42,28.125 42.688,28.125 19.644,0 36.84,-11.86 44.344,-28.938 8.26,1.885 15.993,2.507 23.72,1 8.57,-1.67 16.468,-6.014 24.467,-12.5 z m 78.376,319.906 18.624,48.406 -358.686,0 21.72,-48.406 318.34,0 z"
     id="path4"
     inkscape:connector-curvature="0"
     style="fill:#f49000" />
</svg>
