<?xml version="1.0" encoding="UTF-8" standalone="no"?>
<svg
   xmlns:dc="http://purl.org/dc/elements/1.1/"
   xmlns:cc="http://creativecommons.org/ns#"
   xmlns:rdf="http://www.w3.org/1999/02/22-rdf-syntax-ns#"
   xmlns:svg="http://www.w3.org/2000/svg"
   xmlns="http://www.w3.org/2000/svg"
   xmlns:sodipodi="http://sodipodi.sourceforge.net/DTD/sodipodi-0.dtd"
   xmlns:inkscape="http://www.inkscape.org/namespaces/inkscape"
   viewBox="0 0 692 512"
   id="svg2"
   version="1.1"
   inkscape:version="0.91 r13725"
   sodipodi:docname="bottle.svg"
   width="692"
   height="512">
  <metadata
     id="metadata12">
    <rdf:RDF>
      <cc:Work
         rdf:about="">
        <dc:format>image/svg+xml</dc:format>
        <dc:type
           rdf:resource="http://purl.org/dc/dcmitype/StillImage" />
        <dc:title></dc:title>
      </cc:Work>
    </rdf:RDF>
  </metadata>
  <defs
     id="defs10" />
  <sodipodi:namedview
     pagecolor="#ffffff"
     bordercolor="#666666"
     borderopacity="1"
     objecttolerance="10"
     gridtolerance="10"
     guidetolerance="10"
     inkscape:pageopacity="0"
     inkscape:pageshadow="2"
     inkscape:window-width="640"
     inkscape:window-height="480"
     id="namedview8"
     showgrid="false"
     inkscape:zoom="0.4609375"
     inkscape:cx="256"
     inkscape:cy="256"
     inkscape:window-x="0"
     inkscape:window-y="0"
     inkscape:window-maximized="0"
     inkscape:current-layer="svg2" />
  <path
     fill="transparent"
     d="m 0,0 512,0 0,512 -512,0 z"
     id="path4"
     inkscape:connector-curvature="0"
     style="stroke:#ffffff;stroke-width:0" />
  <path
     d="m 474.46967,9.938 -64.034,16.092 -139.406,139.408 c -46.298,46.3 1.17,87.987 -48.25,137.407 l -81.593,81.594 c -1.23,-0.054 -2.468,-0.058 -3.718,0.03 -5.936,0.42 -13.572,2.884 -19.94,9.25 -6.365,6.367 -8.423,13.597 -8.843,19.532 -0.418,5.935 0.87,11.557 2.907,17.47 4.076,11.823 12.242,24.43 23.718,35.905 11.477,11.476 24.05,19.642 35.875,23.72 5.912,2.037 11.565,3.324 17.5,2.905 5.936,-0.42 12.915,-2.727 19.282,-9.094 6.365,-6.366 9.048,-13.752 9.467,-19.687 0.27,-3.817 -0.147,-7.53 -1.03,-11.25 l 78.374,-78.376 c 49.42,-49.42 91.108,-1.95 137.407,-48.25 l 160.938,-160.938 -107,12.156 7.78,-101.593 -76.434,27.781 c 3.406,-34.72 23.273,-64.073 57,-94.063 z m 1.217,218.906 13.438,13.437 -65.344,65.314 c -25.316,25.317 -51.6,25.56 -73.874,25.656 -22.274,0.098 -40.82,-0.075 -63.5,22.594 l -77.625,78.5 c -2.994,-5.3 -6.705,-10.628 -11.093,-15.813 l 75.282,-76.124 c 26.74,-26.74 54.44,-27.996 76.936,-28.094 22.495,-0.097 39.457,0.857 60.438,-20.125 l 65.343,-65.343 z m -344.78,175.5 c 2.838,-0.034 7.036,0.442 11.28,1.906 9.702,3.345 21.423,10.86 32.032,21.47 10.608,10.608 18.123,22.328 21.467,32.03 1.673,4.85 1.79,9.35 1.594,12.125 -0.28,1.417 -0.234,1.427 -1.593,1.625 -2.774,0.196 -6.9,-0.327 -11.75,-2 -9.696,-3.343 -21.395,-10.9 -32,-21.5 -10.608,-10.61 -18.155,-22.33 -21.5,-32.03 -1.672,-4.852 -2.446,-9.195 -2.25,-11.97 0.038,-1.55 0.02,-1.547 1.594,-1.625 0.348,-0.025 0.72,-0.026 1.126,-0.03 z"
     id="path6"
     inkscape:connector-curvature="0"
     style="fill:#000000" />
</svg>
