<?xml version="1.0" encoding="UTF-8" standalone="no"?>
<svg
   xmlns:dc="http://purl.org/dc/elements/1.1/"
   xmlns:cc="http://creativecommons.org/ns#"
   xmlns:rdf="http://www.w3.org/1999/02/22-rdf-syntax-ns#"
   xmlns:svg="http://www.w3.org/2000/svg"
   xmlns="http://www.w3.org/2000/svg"
   xmlns:sodipodi="http://sodipodi.sourceforge.net/DTD/sodipodi-0.dtd"
   xmlns:inkscape="http://www.inkscape.org/namespaces/inkscape"
   viewBox="0 0 692 512"
   id="svg2"
   version="1.1"
   inkscape:version="0.91 r13725"
   sodipodi:docname="shot.svg"
   width="692"
   height="512">
  <metadata
     id="metadata12">
    <rdf:RDF>
      <cc:Work
         rdf:about="">
        <dc:format>image/svg+xml</dc:format>
        <dc:type
           rdf:resource="http://purl.org/dc/dcmitype/StillImage" />
        <dc:title></dc:title>
      </cc:Work>
    </rdf:RDF>
  </metadata>
  <defs
     id="defs10" />
  <sodipodi:namedview
     pagecolor="#ffffff"
     bordercolor="#666666"
     borderopacity="1"
     objecttolerance="10"
     gridtolerance="10"
     guidetolerance="10"
     inkscape:pageopacity="0"
     inkscape:pageshadow="2"
     inkscape:window-width="640"
     inkscape:window-height="480"
     id="namedview8"
     showgrid="false"
     inkscape:zoom="0.4609375"
     inkscape:cx="256"
     inkscape:cy="256"
     inkscape:window-x="0"
     inkscape:window-y="0"
     inkscape:window-maximized="0"
     inkscape:current-layer="svg2" />
  <path
     fill="transparent"
     d="m 0,0 512,0 0,512 -512,0 z"
     id="path4"
     inkscape:connector-curvature="0"
     style="stroke:#ffffff;stroke-width:0" />
  <path
     d="m 346.53,27.375 c -48.39,0 -92.187,5.807 -124.655,15.53 -16.234,4.863 -29.648,10.643 -39.688,17.75 -10.04,7.11 -17.5,16.403 -17.5,27.75 0,1.172 0.097,2.312 0.25,3.44 l -0.187,0 1,10.25 32.875,339.592 0.03,0 c 0.536,9.302 7.122,16.108 15.064,21.22 8.123,5.228 18.688,9.385 31.436,12.937 25.497,7.103 59.68,11.406 97.438,11.406 37.76,0 71.92,-4.304 97.437,-11.406 12.76,-3.55 23.357,-7.718 31.5,-12.938 7.934,-5.085 14.494,-11.798 15.158,-21.03 l 0.03,0 39.25,-339.595 0.47,-4.093 c 1.244,-3.065 1.937,-6.327 1.937,-9.78 0,-11.35 -7.46,-20.642 -17.5,-27.75 -10.04,-7.11 -23.453,-12.89 -39.688,-17.75 C 438.719,33.183 394.922,27.376 346.531,27.376 Z m 0,18.688 c 46.88,0 89.348,5.775 119.314,14.75 14.983,4.487 26.83,9.84 34.25,15.093 7.42,5.254 9.594,9.582 9.594,12.5 0,2.918 -2.175,7.216 -9.594,12.47 -7.42,5.252 -19.267,10.605 -34.25,15.093 -29.966,8.973 -72.434,14.75 -119.313,14.75 -46.878,0 -89.314,-5.777 -119.28,-14.75 -14.983,-4.49 -26.83,-9.842 -34.25,-15.095 -7.42,-5.253 -9.625,-9.55 -9.625,-12.47 0,-2.917 2.206,-7.245 9.625,-12.5 7.42,-5.252 19.267,-10.605 34.25,-15.093 29.966,-8.974 72.402,-14.75 119.28,-14.75 z M 186.126,118.75 c 9.51,5.925 21.563,10.876 35.75,15.125 32.468,9.724 76.265,15.53 124.656,15.53 34.11,0 65.91,-2.89 93.095,-8 l -4,76.25 c -25.53,-4.724 -57.128,-7.5 -91.344,-7.5 -68.924,0 -127.24,11.32 -146.686,26.94 L 186.124,118.75 Z m 319.03,1.094 -13.624,117.72 c -4.28,-3.6 -10.63,-6.96 -18.686,-10.033 l 9.187,-97.186 c 8.758,-3.123 16.52,-6.593 23.126,-10.5 z m -16.405,141.72 -9.53,82.498 c -3.96,9.04 -10.745,16.984 -19.658,23.813 L 468.72,271 c 8.322,-2.87 15.116,-6.047 20.03,-9.438 z m -288.78,0.092 c 21.506,14.704 78,25.22 144.31,25.22 32.79,0 63.15,-2.597 88.095,-6.97 l -5.5,105.188 c -73.98,27.105 -197.158,14.24 -219.094,-42.625 l -7.81,-80.814 z"
     id="path6"
     inkscape:connector-curvature="0"
     style="fill:#000000" />
</svg>
